<svg width="25" height="24" viewBox="0 0 25 24" fill="none" xmlns="http://www.w3.org/2000/svg">
<g id="solar:calendar-outline">
<g id="Group">
<path id="Vector" d="M17.3335 14C17.5987 14 17.8531 13.8946 18.0406 13.7071C18.2281 13.5196 18.3335 13.2652 18.3335 13C18.3335 12.7348 18.2281 12.4804 18.0406 12.2929C17.8531 12.1054 17.5987 12 17.3335 12C17.0683 12 16.8139 12.1054 16.6264 12.2929C16.4389 12.4804 16.3335 12.7348 16.3335 13C16.3335 13.2652 16.4389 13.5196 16.6264 13.7071C16.8139 13.8946 17.0683 14 17.3335 14ZM17.3335 18C17.5987 18 17.8531 17.8946 18.0406 17.7071C18.2281 17.5196 18.3335 17.2652 18.3335 17C18.3335 16.7348 18.2281 16.4804 18.0406 16.2929C17.8531 16.1054 17.5987 16 17.3335 16C17.0683 16 16.8139 16.1054 16.6264 16.2929C16.4389 16.4804 16.3335 16.7348 16.3335 17C16.3335 17.2652 16.4389 17.5196 16.6264 17.7071C16.8139 17.8946 17.0683 18 17.3335 18ZM13.3335 13C13.3335 13.2652 13.2281 13.5196 13.0406 13.7071C12.8531 13.8946 12.5987 14 12.3335 14C12.0683 14 11.8139 13.8946 11.6264 13.7071C11.4389 13.5196 11.3335 13.2652 11.3335 13C11.3335 12.7348 11.4389 12.4804 11.6264 12.2929C11.8139 12.1054 12.0683 12 12.3335 12C12.5987 12 12.8531 12.1054 13.0406 12.2929C13.2281 12.4804 13.3335 12.7348 13.3335 13ZM13.3335 17C13.3335 17.2652 13.2281 17.5196 13.0406 17.7071C12.8531 17.8946 12.5987 18 12.3335 18C12.0683 18 11.8139 17.8946 11.6264 17.7071C11.4389 17.5196 11.3335 17.2652 11.3335 17C11.3335 16.7348 11.4389 16.4804 11.6264 16.2929C11.8139 16.1054 12.0683 16 12.3335 16C12.5987 16 12.8531 16.1054 13.0406 16.2929C13.2281 16.4804 13.3335 16.7348 13.3335 17ZM7.3335 14C7.59871 14 7.85307 13.8946 8.0406 13.7071C8.22814 13.5196 8.3335 13.2652 8.3335 13C8.3335 12.7348 8.22814 12.4804 8.0406 12.2929C7.85307 12.1054 7.59871 12 7.3335 12C7.06828 12 6.81393 12.1054 6.62639 12.2929C6.43885 12.4804 6.3335 12.7348 6.3335 13C6.3335 13.2652 6.43885 13.5196 6.62639 13.7071C6.81393 13.8946 7.06828 14 7.3335 14ZM7.3335 18C7.59871 18 7.85307 17.8946 8.0406 17.7071C8.22814 17.5196 8.3335 17.2652 8.3335 17C8.3335 16.7348 8.22814 16.4804 8.0406 16.2929C7.85307 16.1054 7.59871 16 7.3335 16C7.06828 16 6.81393 16.1054 6.62639 16.2929C6.43885 16.4804 6.3335 16.7348 6.3335 17C6.3335 17.2652 6.43885 17.5196 6.62639 17.7071C6.81393 17.8946 7.06828 18 7.3335 18Z" fill="#B9B9B9"/>
<path id="Vector_2" fill-rule="evenodd" clip-rule="evenodd" d="M7.3335 1.75C7.53241 1.75 7.72317 1.82902 7.86383 1.96967C8.00448 2.11032 8.0835 2.30109 8.0835 2.5V3.263C8.7455 3.25 9.4745 3.25 10.2765 3.25H14.3895C15.1925 3.25 15.9215 3.25 16.5835 3.263V2.5C16.5835 2.30109 16.6625 2.11032 16.8032 1.96967C16.9438 1.82902 17.1346 1.75 17.3335 1.75C17.5324 1.75 17.7232 1.82902 17.8638 1.96967C18.0045 2.11032 18.0835 2.30109 18.0835 2.5V3.327C18.3435 3.347 18.5895 3.372 18.8225 3.403C19.9945 3.561 20.9435 3.893 21.6925 4.641C22.4405 5.39 22.7725 6.339 22.9305 7.511C23.0835 8.651 23.0835 10.106 23.0835 11.944V14.056C23.0835 15.894 23.0835 17.35 22.9305 18.489C22.7725 19.661 22.4405 20.61 21.6925 21.359C20.9435 22.107 19.9945 22.439 18.8225 22.597C17.6825 22.75 16.2275 22.75 14.3895 22.75H10.2775C8.4395 22.75 6.9835 22.75 5.8445 22.597C4.6725 22.439 3.7235 22.107 2.9745 21.359C2.2265 20.61 1.8945 19.661 1.7365 18.489C1.5835 17.349 1.5835 15.894 1.5835 14.056V11.944C1.5835 10.106 1.5835 8.65 1.7365 7.511C1.8945 6.339 2.2265 5.39 2.9745 4.641C3.7235 3.893 4.6725 3.561 5.8445 3.403C6.0775 3.372 6.3245 3.347 6.5835 3.327V2.5C6.5835 2.30109 6.66251 2.11032 6.80317 1.96967C6.94382 1.82902 7.13458 1.75 7.3335 1.75ZM6.0435 4.89C5.0385 5.025 4.4585 5.279 4.0355 5.702C3.6125 6.125 3.3585 6.705 3.2235 7.711C3.2005 7.881 3.1815 8.061 3.1655 8.25H21.5015C21.4855 8.06 21.4665 7.881 21.4435 7.71C21.3085 6.705 21.0545 6.125 20.6315 5.702C20.2085 5.279 19.6285 5.025 18.6225 4.89C17.5955 4.752 16.2405 4.75 14.3335 4.75H10.3335C8.4265 4.75 7.0725 4.752 6.0435 4.89ZM3.0835 12C3.0835 11.146 3.0835 10.403 3.0965 9.75H21.5705C21.5835 10.403 21.5835 11.146 21.5835 12V14C21.5835 15.907 21.5815 17.262 21.4435 18.29C21.3085 19.295 21.0545 19.875 20.6315 20.298C20.2085 20.721 19.6285 20.975 18.6225 21.11C17.5955 21.248 16.2405 21.25 14.3335 21.25H10.3335C8.4265 21.25 7.0725 21.248 6.0435 21.11C5.0385 20.975 4.4585 20.721 4.0355 20.298C3.6125 19.875 3.3585 19.295 3.2235 18.289C3.0855 17.262 3.0835 15.907 3.0835 14V12Z" fill="#B9B9B9"/>
</g>
</g>
</svg>
